<svg width="800" height="800" viewBox="0 0 800 800" fill="none" xmlns="http://www.w3.org/2000/svg">
<rect x="800" y="799.999" width="800" height="800" rx="400" transform="rotate(180 800 799.999)" fill="black" style="fill:black;fill-opacity:1;"/>
<path d="M178.455 569.163C177.745 556.04 176.94 539.591 176.041 519.813C175.142 500.035 174.231 478.464 173.309 455.098C172.377 431.562 171.503 407.51 170.687 382.942C169.87 358.375 169.185 334.654 168.631 311.781C168.077 288.909 167.818 268.327 167.854 250.037C175.988 248.743 185.579 247.54 196.629 246.429C207.849 245.31 218.822 244.374 229.549 243.623C240.438 242.692 249.631 242.023 257.129 241.618C264.618 241.041 268.789 240.73 269.641 240.684C270.019 241.347 271.433 245.373 273.884 252.761C276.505 260.139 279.757 269.705 283.641 281.459C287.694 293.204 292.068 306.128 296.762 320.231C301.457 334.334 306.165 348.693 310.886 363.307C315.779 377.912 320.374 391.764 324.672 404.863C328.961 417.791 332.471 428.967 335.203 438.391C338.105 447.805 339.994 454.283 340.869 457.825L331.48 459.615C332.926 454.751 335.058 446.774 337.876 435.682C340.694 424.591 343.846 411.773 347.332 397.227C350.979 382.502 354.59 367.095 358.163 351.007C361.897 334.738 365.489 318.991 368.938 303.763C372.387 288.536 375.327 274.96 377.759 263.035C380.351 250.931 382.163 241.774 383.194 235.566C390.352 235.178 399.478 234.855 410.574 234.597C421.84 234.329 433.2 234.227 444.655 234.291C456.11 234.355 465.624 234.866 473.196 235.823C477.434 250.977 480.894 270.701 483.576 294.997C486.249 319.123 488.318 344.733 489.784 371.83C490.964 393.643 491.822 415.816 492.358 438.348C493.055 460.7 493.422 481.703 493.46 501.356C493.498 521.01 493.284 537.6 492.82 551.128C484.469 551.58 475.428 551.898 465.696 552.083C455.964 552.267 446.653 552.344 437.763 552.312C429.035 552.101 422.106 551.963 416.975 551.899C417.227 540.775 417.224 526.504 416.966 509.085C416.877 491.656 416.586 473.64 416.092 455.037C415.986 443.591 415.704 432.07 415.247 420.472C414.961 408.865 414.645 398.285 414.299 388.733C414.124 379.171 413.978 371.744 413.863 366.452C412.348 373.2 410.177 382.034 407.349 392.954C404.683 403.696 401.565 415.572 397.996 428.584C394.598 441.586 390.953 454.773 387.062 468.144C383.332 481.336 379.655 493.926 376.03 505.916C372.577 517.896 369.461 528.234 366.684 536.93C364.078 545.617 362.015 551.71 360.495 555.211C358.119 555.51 354.464 555.879 349.531 556.317C344.759 556.575 341.095 556.773 338.539 556.912C333.938 557.161 329.157 557.248 324.196 557.175C319.397 556.922 314.082 556.611 308.251 556.243C307.619 554.055 306.263 549.514 304.181 542.619C302.269 535.715 299.758 527.22 296.649 517.133C293.539 507.046 290.123 496.036 286.401 484.102C282.84 471.989 279.185 459.71 275.435 447.265C271.676 434.65 267.94 422.46 264.227 410.697C260.514 398.934 257.116 388.264 254.034 378.689C251.123 369.104 248.654 361.376 246.627 355.503C247.673 371.684 248.69 388.891 249.677 407.126C250.834 425.351 251.887 443.241 252.837 460.794C253.786 478.347 254.662 494.536 255.465 509.363C256.428 524.009 257.173 536.19 257.698 545.903C258.224 555.617 258.542 561.496 258.652 563.541C252.697 564.035 245.127 564.701 235.943 565.539C226.75 566.208 217.131 566.899 207.085 567.614C197.031 568.158 187.487 568.674 178.455 569.163Z" fill="white" style="fill:white;fill-opacity:1;"/>
<path d="M415.283 554.078C415.905 544.98 416.49 532.912 417.038 517.874C417.756 502.687 418.44 485.654 419.09 466.775C419.74 447.895 420.297 428.047 420.758 407.23C421.22 386.413 421.677 365.676 422.128 345.018C422.59 324.201 422.981 304.422 423.301 285.68C423.791 266.789 424.06 249.968 424.107 235.217C429.77 234.482 436.204 234.2 443.409 234.373C450.625 234.385 457.426 234.61 463.811 235.047C471.313 235.56 478.315 236.36 484.816 237.446C491.488 238.384 496.637 239.297 500.265 240.187C500.141 244.348 499.922 251.069 499.607 260.349C499.304 269.47 498.983 280.032 498.642 292.037C498.302 304.042 497.946 316.286 497.573 328.77C497.359 341.264 497.132 352.796 496.89 363.364C503.487 358.362 510.751 351.803 518.684 343.685C526.787 335.419 535.212 325.972 543.957 315.344C552.863 304.727 561.663 293.301 570.358 281.066C579.054 268.831 587.383 256.09 595.346 242.843C607.141 253.272 618.854 262.573 630.483 270.746C642.283 278.77 650.644 284.314 655.566 287.377C653.345 291.715 649.146 298.003 642.97 306.241C636.793 314.479 629.353 323.592 620.651 333.581C612.109 343.582 602.768 353.527 592.63 363.418C582.491 373.31 572.354 381.998 562.22 389.484C569.43 398.958 576.739 409.321 584.149 420.573C591.569 431.665 598.579 442.89 605.179 454.247C611.95 465.455 618.115 476.141 623.674 486.304C629.234 496.467 633.837 505.362 637.485 512.989C641.293 520.627 643.795 526.25 644.991 529.861C640.815 532.301 634.589 535.403 626.312 539.167C618.036 542.931 609.207 546.577 599.824 550.105C590.601 553.644 582.322 556.285 574.985 558.028C573.662 553.928 571.336 548.076 568.008 540.471C564.69 532.706 560.794 524.02 556.319 514.412C551.855 504.645 547.003 494.69 541.763 484.549C536.683 474.419 531.57 464.767 526.424 455.595C521.278 446.422 516.438 438.634 511.905 432.229C509.209 434.13 506.529 435.791 503.866 437.212C501.213 438.474 498.726 439.667 496.404 440.791C496.536 450.583 496.597 461.412 496.587 473.279C496.588 484.987 496.531 496.369 496.416 507.427C496.301 518.485 496.13 528.016 495.903 536.019C495.836 544.033 495.726 549.158 495.573 551.392C492.689 551.355 486.91 551.441 478.235 551.65C469.561 551.858 459.598 552.139 448.348 552.492C437.246 553.015 426.225 553.544 415.283 554.078Z" fill="white" style="fill:white;fill-opacity:1;"/>
</svg>
